<!DOCTYPE svg PUBLIC "-//W3C//DTD SVG 1.1//EN" "http://www.w3.org/Graphics/SVG/1.1/DTD/svg11.dtd">
<!-- Uploaded to: SVG Repo, www.svgrepo.com, Transformed by: SVG Repo Mixer Tools -->
<svg width="800px" height="800px" viewBox="-5.76 -5.76 35.52 35.52" fill="none" xmlns="http://www.w3.org/2000/svg">
<g id="SVGRepo_bgCarrier" stroke-width="0">
<path transform="translate(-5.76, -5.76), scale(1.11)" d="M16,29.15316545870155C17.946433597021155,29.139979470156735,19.859234738732315,28.467894312808674,21.499623687934694,27.420086261092454C23.06639535757264,26.419301677993573,23.832087066041208,24.606421703740885,25.15812394266981,23.303360136365978C26.671400811342842,21.816302752729158,29.061465940508178,21.122694490802935,29.893949274899626,19.171203255503595C30.725987276972937,17.220755959559842,30.332047785475073,14.885686578707148,29.597595371620933,12.896437589029818C28.89006432953634,10.980104571283555,27.09305152193439,9.766347063210658,25.829074396457145,8.161574731480052C24.557642673065548,6.547337883156544,24.009852244347684,4.084634988595645,22.086817350789005,3.3605935340588875C20.13273932924078,2.6248640380735795,18.061708015629364,4.130561147973627,16,4.460832042619586C14.245732440989565,4.741853172561642,12.539290862903137,4.889836216104898,10.785054997289464,5.171055119923588C8.471514485991188,5.541935307292142,5.221328193414739,4.422596693787764,3.95219641939571,6.392197249985932C2.613709202346694,8.46943242850125,5.830151339884621,11.145891547532129,5.370593342744682,13.573907293842254C4.93656603650826,15.867034908700626,1.6050729311850003,16.97598501674603,1.5076223970465925,19.307790616272076C1.4160064203430363,21.499986373557324,3.279743179180006,23.37224036651133,4.899237145425877,24.852562972817132C6.434201261649562,26.255619809380335,8.525226032780038,26.743588380956997,10.46437495947393,27.49484384005398C12.283323276354066,28.199531775086,14.049363323616127,29.166379920735732,16,29.15316545870155" fill="#ffffff" strokewidth="0"/>
</g>
<g id="SVGRepo_tracerCarrier" stroke-linecap="round" stroke-linejoin="round"/>
<g id="SVGRepo_iconCarrier"> <path d="M9.41763 18.5409C10.1913 17.3978 11.2839 16 12 16C12.7161 16 13.8087 17.3978 14.5824 18.5409C15.0129 19.1769 14.5438 20 13.7757 20H10.2243C9.45619 20 8.9871 19.1769 9.41763 18.5409Z" fill="#212529"/> <path d="M12 9C12.3511 9 12.9855 8.23437 13.5273 7.47668C13.9798 6.84397 13.5091 6 12.7313 6L11.2687 6C10.4909 6 10.0202 6.84397 10.4727 7.47668C11.0145 8.23437 11.6489 9 12 9Z" fill="#212529"/> <path fill-rule="evenodd" clip-rule="evenodd" d="M4 2C4 1.44772 4.44772 1 5 1H19C19.5523 1 20 1.44772 20 2C20 2.55228 19.5523 3 19 3H17.9726C17.8373 5.41131 17.21 7.23887 16.2903 8.7409C15.4882 10.0511 14.4804 11.0808 13.4874 12C14.4804 12.9192 15.4882 13.9489 16.2903 15.2591C17.21 16.7611 17.8373 18.5887 17.9726 21H19C19.5523 21 20 21.4477 20 22C20 22.5523 19.5523 23 19 23H5C4.44772 23 4 22.5523 4 22C4 21.4477 4.44772 21 5 21H6.02739C6.16267 18.5887 6.79004 16.7611 7.70965 15.2591C8.51183 13.9489 9.51962 12.9192 10.5126 12C9.51962 11.0808 8.51183 10.0511 7.70965 8.7409C6.79004 7.23887 6.16267 5.41131 6.02739 3H5C4.44772 3 4 2.55228 4 2ZM15.9691 21C15.8384 18.9511 15.3049 17.4797 14.5846 16.3034C13.8874 15.1645 12.9954 14.2641 12 13.3497C11.0046 14.2641 10.1126 15.1645 9.41535 16.3034C8.69515 17.4797 8.1616 18.9511 8.03092 21H15.9691ZM8.03092 3H15.9691C15.8384 5.04891 15.3049 6.52026 14.5846 7.6966C13.8874 8.83549 12.9954 9.73587 12 10.6503C11.0046 9.73587 10.1126 8.83549 9.41535 7.6966C8.69515 6.52026 8.1616 5.04891 8.03092 3Z" fill="#212529"/> </g>
</svg>